# xmcd CD database file
#
# Track frame offsets:
#	150
#	21025
#	38667
#	51737
#	69405
#	84897
#	98030
#	112355
#	127077
#	147200
#	159822
#	173265
#	185770
#
# Disc length: 2765 seconds
#
# Revision: 3
# Processed by: cddbd v1.5.2PL0 Copyright (c) Steve Scherf et al.
# Submitted via: CDex 1.51
#
DISCID=aa0acb0d
DTITLE=Gary Primich - Mr. Freeze
DYEAR=1995
DGENRE=Blues
TTITLE0=Bad Poker Hand
TTITLE1=I'm The One
TTITLE2=Route 90
TTITLE3=Mr. Freeze
TTITLE4=Go On Fool
TTITLE5=Dummy On Your Knee
TTITLE6=Dallas Texas
TTITLE7=Slap You Silly
TTITLE8=Jenny Brown
TTITLE9=You Came A Long Way From St. Louis
TTITLE10=Red Top
TTITLE11=Easy Ridin' Mama
TTITLE12=Let Me Go Home Whiskey
EXTD=YEAR: 1995
EXTT0=
EXTT1=
EXTT2=
EXTT3=
EXTT4=
EXTT5=
EXTT6=
EXTT7=
EXTT8=
EXTT9=
EXTT10=
EXTT11=
EXTT12=
PLAYORDER=
